<?xml version="1.0" encoding="UTF-8" standalone="no"?>
<!-- Created with Inkscape (http://www.inkscape.org/) -->

<svg
   width="297.63788"
   height="314.41525"
   viewBox="0 0 297.63788 314.41525"
   version="1.1"
   id="svg1"
   xmlns="http://www.w3.org/2000/svg"
   xmlns:svg="http://www.w3.org/2000/svg">
  <defs
     id="defs1" />
  <g
     id="layer1"
     transform="translate(-128.47233,-113.0146)">
    <g
       id="g9"
       transform="translate(-25.140485,-44.67157)">
      <g
         id="g10">
        <path
           style="fill:#784421;fill-opacity:0.882353;stroke:none;stroke-width:4.37351;stroke-linecap:round;stroke-linejoin:round;stroke-opacity:1"
           d="m 381.28105,364.96517 c 28.58229,21.38602 64.13975,78.14413 9.25353,90.87929 -31.60735,4.67406 -52.49785,-32.86976 -51.95744,-60.099"
           id="path8" />
        <path
           style="fill:#ffcc00;fill-opacity:0.882353;stroke:none;stroke-width:4.05912;stroke-linecap:round;stroke-linejoin:round;stroke-opacity:1"
           d="m 309.8154,434.40046 c 16.88363,-18.01276 28.86947,-40.651 51.15758,-53.07117 29.49053,-23.68902 59.41506,-46.86185 90.27771,-68.74349 -11.85976,-20.2125 -37.58888,-15.88958 -47.92225,2.88403 -46.87946,41.47266 -96.29787,81.04042 -134.93739,130.72725 -9.61782,22.18615 27.43284,25.95546 27.6873,2.76844 4.3712,-5.04767 11.14301,-8.06099 13.73705,-14.56506 z"
           id="path7" />
        <path
           style="fill:#7676b1;fill-opacity:1;stroke:none;stroke-width:3.833;stroke-linecap:round;stroke-linejoin:round;stroke-opacity:1"
           d="M 296.02008,403.412 C 267.03777,344.29355 184.62392,325.0729 164.38191,266.97998 c -2.98996,-47.8796 11.67124,-115.34915 73.44994,-104.9751 61.42495,-14.0883 87.20191,47.9431 118.76824,86.43726 44.39364,37.10435 27.14025,92.34168 -21.66038,113.97894 -14.53177,12.3234 -23.83716,29.04884 -38.91963,40.99092 z"
           id="path6" />
        <path
           style="fill:#d2d2e6;fill-opacity:0.46781;stroke:none;stroke-width:1.99039;stroke-linecap:round;stroke-linejoin:round;stroke-opacity:1"
           d="m 292.46877,400.51981 c -14.68634,-8.74872 -6.58959,-38.25257 -40.82579,-58.44478 -44.30255,-26.12925 -68.04449,-40.19201 -82.46209,-52.36894 -1.55261,-24.86274 6.0606,-59.89807 38.14081,-54.51107 31.89652,-7.31572 115.29981,89.84004 131.69146,109.82914 23.05256,19.26741 1.5762,15.65145 -23.76481,26.88717 -7.546,6.39925 -14.19722,33.72103 -22.77958,28.60848 z"
           id="path9" />
      </g>
      <g
         id="g11">
        <path
           style="fill:none;fill-opacity:0.882353;stroke:#000000;stroke-width:3.833;stroke-linecap:round;stroke-linejoin:round;stroke-opacity:1"
           d="m 304.56933,436.46736 c 32.45805,-47.17585 83.79593,-74.65853 126.15263,-111.21334 6.19397,-31.65043 -44.40046,-9.11444 -51.70719,11.22092 -39.61855,36.13219 -82.87087,69.64425 -115.3731,113.14897 4.69413,38.09299 31.97533,-0.0285 40.92766,-13.15655 z"
           id="path2" />
        <path
           style="fill:none;fill-opacity:0.882353;stroke:#000000;stroke-width:3.833;stroke-linecap:round;stroke-linejoin:round;stroke-opacity:1"
           d="m 376.66707,376.1508 c 13.38158,21.9098 61.34641,49.46693 21.22714,71.85712 -33.22772,32.22284 -55.63,-18.43427 -58.6534,-44.88088"
           id="path3" />
        <path
           style="fill:none;fill-opacity:0.882353;stroke:#000000;stroke-width:3.833;stroke-linecap:round;stroke-linejoin:round;stroke-opacity:1"
           d="m 292.12554,405.88167 c -32.5403,-44.52605 -75.58758,-80.32098 -122.65746,-108.4833 -27.01019,-28.46169 8.18853,-84.38511 6.6857,-117.07053 55.14687,-42.83252 45.97542,-4.1475 75.37279,-14.61478 43.68793,-15.34999 56.56852,31.53926 79.31116,57.25686 24.85452,22.55937 32.77105,58.50302 58.69185,78.97371 l 4.35226,1.54946 4.82296,0.75281"
           id="path4" />
        <path
           style="fill:none;fill-opacity:0.882353;stroke:#000000;stroke-width:3.833;stroke-linecap:round;stroke-linejoin:round;stroke-opacity:1"
           d="m 258.11897,263.21165 c 29.72539,34.71518 62.12979,68.12253 83.04351,109.23837 0.47686,2.39095 6.31211,6.15863 7.5774,1.89606"
           id="path5" />
      </g>
    </g>
  </g>
</svg>
